<?xml version="1.0" standalone="no"?>
<!DOCTYPE svg PUBLIC "-//W3C//DTD SVG 20010904//EN"
 "http://www.w3.org/TR/2001/REC-SVG-20010904/DTD/svg10.dtd">
<svg version="1.0" xmlns="http://www.w3.org/2000/svg"
 width="600.000000pt" height="614.000000pt" viewBox="0 0 600.000000 614.000000"
 preserveAspectRatio="xMidYMid meet">
<g transform="translate(0.000000,614.000000) scale(0.100000,-0.100000)"
fill="#000000" stroke="none">
<path d="M1982 6048 c-143 -25 -264 -142 -298 -287 -20 -83 -18 -234 5 -322
10 -41 45 -128 77 -194 71 -148 81 -214 40 -257 -36 -40 -76 -37 -126 8 -22
20 -52 61 -67 92 -26 53 -28 65 -27 177 0 66 4 170 9 232 9 122 1 169 -41 253
-78 159 -243 195 -386 85 -68 -51 -98 -118 -98 -217 0 -73 3 -82 47 -165 86
-164 93 -178 109 -243 26 -101 5 -220 -38 -220 -30 0 -46 56 -53 186 -8 147
-18 200 -51 271 -64 133 -168 191 -269 149 -60 -25 -103 -66 -130 -121 -55
-111 -41 -219 44 -355 64 -104 82 -146 88 -210 9 -92 -27 -214 -56 -195 -7 4
-6 17 6 38 22 43 22 176 0 242 -10 28 -38 76 -63 108 -100 128 -223 128 -306
1 -61 -92 -79 -208 -51 -323 6 -23 4 -24 -38 -18 -74 10 -130 -28 -165 -113
-33 -77 -36 -120 -23 -321 l13 -197 -32 -133 c-46 -196 -55 -268 -49 -414 5
-144 26 -250 125 -645 191 -756 254 -1057 282 -1340 42 -431 51 -507 75 -626
44 -220 107 -381 207 -531 99 -147 202 -234 364 -306 108 -47 177 -61 319 -60
119 0 138 3 225 32 169 57 325 164 418 286 122 162 196 380 209 615 9 174 -23
530 -76 835 -99 567 -104 849 -21 1142 39 136 86 234 214 446 124 206 162 283
210 428 54 162 69 262 63 409 -6 130 -20 194 -83 394 -51 164 -60 245 -46 428
22 283 13 409 -40 553 -97 266 -318 438 -516 403z m137 -59 c45 -9 76 -27 198
-112 18 -12 32 -28 33 -35 0 -8 8 -26 19 -40 32 -46 88 -164 105 -223 22 -79
39 -246 32 -326 -4 -37 -9 -144 -12 -238 -7 -191 -4 -209 61 -415 78 -247 89
-406 42 -608 -14 -62 -23 -120 -20 -128 3 -9 0 -14 -7 -12 -7 2 -18 -13 -25
-33 -12 -33 -33 -76 -137 -279 -18 -36 -37 -68 -41 -71 -11 -8 -87 -132 -87
-142 0 -5 -11 -23 -24 -40 -79 -107 -157 -378 -176 -609 -10 -122 -1 -352 20
-497 18 -125 60 -396 74 -476 32 -179 48 -330 53 -512 7 -235 -6 -350 -54
-493 -62 -183 -102 -248 -230 -370 -69 -66 -109 -95 -177 -129 -121 -59 -169
-71 -316 -78 -141 -6 -229 11 -353 67 -36 16 -76 30 -86 30 -14 0 -19 5 -15
15 4 8 2 15 -4 15 -5 0 -30 18 -55 40 -25 22 -50 40 -56 40 -6 0 -11 5 -11 10
0 6 -20 35 -44 65 -25 30 -57 76 -72 102 -15 26 -32 54 -38 61 -12 17 -51 109
-75 182 -61 181 -87 335 -121 711 -30 346 -57 511 -140 854 -16 66 -52 217
-81 335 -28 118 -62 256 -76 305 -13 50 -28 111 -33 137 -5 27 -11 52 -15 58
-3 5 -17 62 -30 126 -13 65 -28 120 -33 123 -5 3 -9 103 -7 226 1 204 4 227
28 318 15 54 27 115 27 137 0 23 5 40 11 40 9 0 10 26 3 98 -4 53 -8 162 -9
242 0 131 2 149 22 186 12 23 33 48 47 57 37 24 107 22 141 -4 20 -16 29 -19
34 -10 5 7 18 -24 31 -74 21 -77 22 -93 12 -163 -6 -42 -9 -78 -7 -81 14 -13
55 14 70 45 30 63 -1 193 -63 269 -48 58 -65 113 -66 210 -1 84 1 94 33 153
43 80 78 105 141 105 43 -1 52 -5 88 -44 76 -80 87 -115 88 -272 1 -81 5 -142
11 -148 8 -8 24 4 54 36 55 59 57 65 58 146 1 78 -8 131 -20 123 -5 -3 -9 5
-9 18 0 13 -22 59 -48 103 -67 111 -82 154 -82 231 0 128 81 214 203 214 39 0
48 -5 89 -50 70 -76 77 -105 104 -438 5 -51 11 -70 32 -92 40 -44 75 -48 107
-15 36 40 48 96 41 197 -7 102 -28 160 -91 254 -78 117 -94 217 -50 311 26 58
86 105 157 124 100 26 191 -35 240 -163 17 -45 20 -70 17 -173 -9 -292 -5
-387 19 -438 48 -107 109 -157 191 -157 75 0 130 76 118 164 -3 23 -33 99 -67
169 -83 174 -93 219 -88 387 3 135 4 137 38 193 87 144 196 191 359 156z
m-1729 -1233 c0 -2 3 -12 7 -21 5 -14 2 -16 -18 -10 -31 9 -32 11 -24 24 6 10
35 16 35 7z m116 -262 c6 -41 -7 -84 -26 -84 -6 0 -10 44 -9 108 l1 107 14
-45 c8 -25 17 -63 20 -86z"/>
<path d="M1806 5833 c-6 -14 -5 -15 5 -6 7 7 10 15 7 18 -3 3 -9 -2 -12 -12z"/>
<path d="M1225 5411 c-3 -5 -2 -12 3 -15 5 -3 9 1 9 9 0 17 -3 19 -12 6z"/>
<path d="M1896 4962 c-3 -5 1 -9 9 -9 8 0 12 4 9 9 -3 4 -7 8 -9 8 -2 0 -6 -4
-9 -8z"/>
<path d="M452 4754 c10 -10 20 -16 22 -13 3 3 -5 11 -17 18 -21 13 -21 12 -5
-5z"/>
<path d="M1440 4400 c0 -5 5 -10 11 -10 5 0 7 5 4 10 -3 6 -8 10 -11 10 -2 0
-4 -4 -4 -10z"/>
<path d="M1478 4383 c7 -3 16 -2 19 1 4 3 -2 6 -13 5 -11 0 -14 -3 -6 -6z"/>
<path d="M1520 4378 c0 -11 12 -10 30 2 12 7 10 9 -8 7 -12 0 -22 -5 -22 -9z"/>
<path d="M896 3395 c-9 -26 -7 -32 5 -12 6 10 9 21 6 23 -2 3 -7 -2 -11 -11z"/>
<path d="M1232 2570 c0 -14 2 -19 5 -12 2 6 2 18 0 25 -3 6 -5 1 -5 -13z"/>
<path d="M855 451 c-3 -5 -2 -12 3 -15 5 -3 9 1 9 9 0 17 -3 19 -12 6z"/>
<path d="M3827 6036 c-141 -59 -240 -168 -314 -342 -68 -157 -84 -316 -59
-560 15 -145 15 -171 2 -260 -8 -55 -33 -160 -56 -234 -22 -74 -47 -167 -55
-207 -17 -83 -20 -288 -5 -380 28 -172 103 -350 254 -599 222 -369 281 -562
280 -914 -1 -181 -22 -366 -80 -700 -59 -341 -79 -569 -71 -808 6 -181 22
-269 75 -403 105 -263 314 -457 569 -528 275 -76 596 14 788 220 211 226 313
532 360 1074 38 449 70 614 300 1545 88 354 127 538 132 626 8 110 -11 276
-47 418 -40 160 -45 237 -26 373 36 256 -45 442 -183 418 l-39 -6 6 89 c13
237 -129 408 -277 333 -51 -26 -108 -92 -139 -160 -34 -74 -43 -210 -17 -264
16 -35 14 -57 -6 -57 -5 0 -9 6 -7 13 1 6 -3 22 -10 33 -18 34 -30 130 -21
184 4 28 22 76 40 108 112 201 119 218 119 300 -1 119 -47 200 -141 247 -107
55 -216 10 -278 -114 -35 -68 -53 -156 -61 -291 -9 -156 -18 -190 -54 -190
-67 0 -60 228 11 350 15 25 47 83 71 130 43 83 44 87 40 160 -6 91 -29 142
-93 198 -110 97 -257 95 -344 -3 -77 -89 -105 -207 -88 -374 17 -165 15 -279
-8 -339 -40 -110 -132 -176 -190 -138 -29 19 -45 53 -45 95 0 15 25 79 56 142
76 154 92 203 104 324 16 154 -6 266 -71 360 -71 104 -149 147 -279 152 -73 3
-93 0 -143 -21z m220 -37 c59 -12 116 -52 163 -115 53 -73 62 -114 63 -274 1
-145 1 -145 -35 -230 -20 -47 -54 -120 -77 -163 -34 -64 -41 -88 -41 -133 0
-128 85 -188 190 -134 53 27 87 64 118 130 24 49 26 67 26 170 0 63 -3 169 -8
235 -7 99 -5 131 8 184 23 84 56 134 111 166 63 38 111 42 170 16 26 -11 50
-19 54 -17 13 8 79 -105 91 -156 17 -68 1 -137 -51 -220 -22 -34 -54 -92 -71
-128 -29 -59 -32 -75 -35 -180 -4 -102 -2 -119 16 -148 56 -88 139 -52 155 68
4 25 10 101 15 170 5 69 15 138 22 153 11 24 11 30 -2 38 -13 8 -12 10 12 13
6 0 16 10 22 22 7 11 28 40 48 62 34 39 39 42 88 42 29 0 62 -5 74 -11 31 -16
107 -91 107 -106 0 -6 6 -16 13 -20 17 -10 6 -146 -13 -184 -7 -13 -41 -76
-76 -140 -74 -132 -84 -179 -64 -284 14 -72 56 -135 90 -135 25 0 30 28 29
166 -1 132 0 136 48 214 29 49 40 58 94 80 l62 24 36 -21 c81 -46 136 -201
112 -313 -7 -31 -29 -81 -51 -115 -66 -102 -90 -163 -90 -230 0 -52 4 -66 28
-95 28 -33 60 -35 47 -2 -3 8 -6 55 -6 103 -1 146 47 217 153 227 59 6 84 -13
120 -91 21 -48 23 -63 19 -187 -9 -334 -7 -379 22 -473 33 -108 50 -279 42
-407 -4 -52 -20 -160 -36 -240 -16 -80 -35 -170 -41 -200 -6 -30 -16 -68 -23
-85 -7 -16 -29 -100 -49 -185 -21 -85 -48 -195 -61 -245 -57 -221 -126 -555
-120 -576 4 -11 2 -19 -3 -19 -21 0 -50 -188 -87 -560 -38 -375 -61 -517 -106
-655 -73 -227 -144 -349 -277 -477 -70 -68 -107 -95 -173 -126 -140 -67 -185
-76 -349 -76 -131 0 -153 3 -229 28 -47 16 -94 34 -105 41 -12 7 -31 16 -42
19 -52 16 -203 166 -272 270 -57 87 -88 162 -127 306 -44 160 -44 364 1 750 9
74 17 149 18 165 0 17 5 33 9 36 7 5 34 170 79 474 19 132 16 533 -5 640 -21
110 -97 332 -137 400 -16 28 -41 73 -56 100 -15 28 -40 70 -57 94 -16 24 -43
70 -59 101 -17 32 -40 68 -51 81 -12 13 -29 44 -38 69 -9 25 -29 77 -44 115
-15 39 -40 129 -56 200 -15 72 -33 138 -39 148 -7 12 -7 23 0 37 5 10 10 42
10 70 0 68 31 219 74 355 66 212 64 195 56 645 -4 190 -1 236 13 295 25 101
99 240 160 303 63 65 161 132 193 132 12 0 26 5 30 11 7 11 50 8 151 -12z
m1593 -1248 c0 -5 -13 -16 -30 -25 -34 -16 -38 -11 -13 16 17 19 43 24 43 9z
m-120 -166 c-6 -16 -8 -54 -4 -91 5 -44 3 -64 -4 -64 -27 0 -28 122 -2 171 16
29 23 18 10 -16z m-30 -3284 c0 -6 -4 -13 -10 -16 -5 -3 -10 1 -10 9 0 9 5 16
10 16 6 0 10 -4 10 -9z"/>
<path d="M4805 5751 c-3 -5 -2 -12 3 -15 5 -3 9 1 9 9 0 17 -3 19 -12 6z"/>
<path d="M4491 2554 c0 -11 3 -14 6 -6 3 7 2 16 -1 19 -3 4 -6 -2 -5 -13z"/>
<path d="M2291 6033 c7 -12 15 -20 18 -17 3 2 -3 12 -13 22 -17 16 -18 16 -5
-5z"/>
<path d="M3686 6042 c-3 -5 1 -9 9 -9 8 0 12 4 9 9 -3 4 -7 8 -9 8 -2 0 -6 -4
-9 -8z"/>
<path d="M3685 6011 c-3 -5 -2 -12 3 -15 5 -3 9 1 9 9 0 17 -3 19 -12 6z"/>
<path d="M3555 5889 c-4 -6 -5 -12 -2 -15 2 -3 7 2 10 11 7 17 1 20 -8 4z"/>
<path d="M2590 5434 c0 -8 5 -12 10 -9 6 4 8 11 5 16 -9 14 -15 11 -15 -7z"/>
<path d="M4220 5135 c-11 -13 -11 -18 0 -28 10 -9 11 -9 6 1 -4 7 -2 19 4 27
7 8 10 15 7 15 -2 0 -10 -7 -17 -15z"/>
<path d="M420 1470 c0 -5 5 -10 10 -10 6 0 10 5 10 10 0 6 -4 10 -10 10 -5 0
-10 -4 -10 -10z"/>
</g>
</svg>
